<svg width="344" height="279" viewBox="0 0 344 279" fill="none" xmlns="http://www.w3.org/2000/svg">
<path fill-rule="evenodd" clip-rule="evenodd" d="M46.8137 30.6466H163.605V40.4534H174.991V60.0669H185.778V98.0682H197.764V122.585H209.75V171.619H197.764V202.265H185.778V212.072H174.991V221.879H163.605V221.987H162.895V231.982L58.4211 231.982V221.987H46.8137V211.991H35.2072V40.6413H46.8137V30.6466ZM23.5961 60.6332H35.2035V182.006H23.5961V60.6332ZM23.5947 96.3312H11.9873V172.011H23.5947V96.3312ZM70.0275 231.982V241.978H151.285V231.982H70.0275Z" fill="#D59F52"/>
<rect x="148.623" y="83.3577" width="20.3757" height="44.1305" fill="#1A1918"/>
<rect x="158.211" y="88.261" width="10.7871" height="15.936" fill="#FFFBF6"/>
<path d="M139.298 0H71.3074V9.99539H139.298V0Z" fill="#1A1918"/>
<path d="M150.906 241.492H69.6491V251.313H150.906V241.492Z" fill="#1A1918"/>
<path d="M57.5313 19.6136H46.7442V30.6462H58.0409L57.5313 19.6136Z" fill="#1A1918"/>
<path d="M150.906 19.9908H162.515V30.6462H150.906V19.9908Z" fill="#1A1918"/>
<path d="M139.298 9.99539H150.906V19.9908H139.298V9.99539Z" fill="#1A1918"/>
<path d="M57.5313 9.99539H71.3074V19.9908L57.5313 19.6136V9.99539Z" fill="#1A1918"/>
<path d="M46.7442 30.6462H34.8246V40.453H46.7442V30.6462Z" fill="#1A1918"/>
<path d="M162.515 30.6462H174.123V40.453H162.515V30.6462Z" fill="#1A1918"/>
<path d="M34.8246 40.453H23.2164V59.9723H34.8246V40.453Z" fill="#1A1918"/>
<path d="M23.2164 59.9723H11.6082V95.6702H23.2164V59.9723Z" fill="#1A1918"/>
<path d="M174.123 40.453H185.731V60.0665H174.123V40.453Z" fill="#1A1918"/>
<path d="M11.6082 95.6702H0V171.35H11.6082V95.6702Z" fill="#1A1918"/>
<path d="M197.764 60.0665H185.731V98.526H197.764V60.0665Z" fill="#1A1918"/>
<path d="M34.8246 181.345H23.2164V210.846H34.8246V181.345Z" fill="#1A1918"/>
<path d="M197.764 171.35H209.75V201.039H197.764V171.35Z" fill="#1A1918"/>
<path d="M197.764 98.526H209.75V122.8H197.764V98.526Z" fill="#1A1918"/>
<path d="M46.4327 210.846H34.8246V221.326H46.4327V210.846Z" fill="#1A1918"/>
<path d="M23.2164 171.35H11.6082V181.345H23.2164V171.35Z" fill="#1A1918"/>
<path d="M174.991 212.072H185.731V221.878H174.991V212.072Z" fill="#1A1918"/>
<path d="M185.731 201.039H197.764V212.072H185.731V201.039Z" fill="#1A1918"/>
<path d="M57.5313 221.326H46.4327V231.685H57.5313V221.326Z" fill="#1A1918"/>
<path d="M163.005 221.878H174.991V231.685H163.005V221.878Z" fill="#1A1918"/>
<path d="M69.6491 231.685H57.5313V241.492H69.6491V231.685Z" fill="#1A1918"/>
<path d="M150.906 231.685H163.005V241.492H150.906V231.685Z" fill="#1A1918"/>
<path d="M220.555 122.8H209.75V171.35H220.555V122.8Z" fill="#1A1918"/>
<rect x="71.9141" y="83.3577" width="20.3757" height="44.1305" fill="#1A1918"/>
<rect x="81.5027" y="88.261" width="10.7871" height="15.936" fill="#FFFBF6"/>
<rect width="33.3701" height="8.90338" transform="matrix(-1 0 0 1 92.8563 252.584)" fill="#B17C31"/>
<rect width="28.7657" height="8.58092" transform="matrix(-1 0 0 1 166.601 252.525)" fill="#B17C31"/>
<rect width="33.5599" height="9.80678" transform="matrix(-1 0 0 1 140.233 144.65)" fill="#1A1918"/>
<rect width="33.5599" height="11.0326" transform="matrix(-1 0 0 1 92.2898 241.492)" fill="#1A1918"/>
<rect width="32.3614" height="11.0326" transform="matrix(-1 0 0 1 92.2898 261.105)" fill="#1A1918"/>
<rect width="31.1628" height="11.0326" transform="matrix(-1 0 0 1 168.998 261.105)" fill="#1A1918"/>
<path fill-rule="evenodd" clip-rule="evenodd" d="M139.303 9.99597H71.3127V19.6136H57.5339V30.6462H71.3097V39.9806H131.009V30.6462H151.022V19.6136H139.303V9.99597ZM112.768 39.9811H71.3104V49.9765H112.768V39.9811Z" fill="#EBBA77"/>
<path fill-rule="evenodd" clip-rule="evenodd" d="M46.7451 30.6466H57.5322V85.8097H46.746V181.348H58.0411V191.342H91.2078V201.336H102.814V211.332H46.4316V210.847H34.7603V181.346H23.2171V59.973H34.7603V40.454H46.7451V30.6466ZM23.2157 95.6722H11.6083V171.352H23.2157V95.6722ZM114.425 211.332V220.654H151.022V210.847H163.007V201.04V191.233H197.766L197.766 201.04L185.78 201.04V212.073H174.993V221.879H163.007V231.686H151.024V241.493H69.5212V231.686H57.5332V221.328H46.4346V211.332H114.425Z" fill="#B17C31"/>
<rect width="9.58855" height="30.6462" transform="matrix(-1 0 0 1 67.1199 241.492)" fill="#1A1918"/>
<rect width="9.58855" height="29.4203" transform="matrix(-1 0 0 1 94.687 242.718)" fill="#1A1918"/>
<rect width="8.38998" height="30.6462" transform="matrix(-1 0 0 1 168.998 241.492)" fill="#1A1918"/>
<rect width="8.38998" height="29.4203" transform="matrix(-1 0 0 1 146.225 242.718)" fill="#1A1918"/>
<rect width="31.1628" height="11.0326" transform="matrix(-1 0 0 1 168.998 241.492)" fill="#1A1918"/>
<rect x="67.1194" y="129.942" width="25.1699" height="11.0326" fill="#6A6967"/>
<rect x="148.622" y="129.942" width="25.1699" height="11.0326" fill="#6A6967"/>
<rect width="31.1628" height="11.0326" transform="matrix(-1 0 0 1 104.277 186.329)" fill="#1A1918"/>
<rect width="8.38998" height="30.6462" transform="matrix(-1 0 0 1 104.277 166.715)" fill="#1A1918"/>
<rect width="8.38998" height="29.4203" transform="matrix(-1 0 0 1 81.5041 167.941)" fill="#1A1918"/>
<rect width="31.1628" height="11.0326" transform="matrix(-1 0 0 1 104.277 166.715)" fill="#1A1918"/>
<path d="M223.561 261.911L318.603 245.282L192.196 176.912L95.5348 183.998L223.561 261.911Z" fill="#4E4C49"/>
<path d="M230.308 95.0162L311.583 136.8L310.073 145.235L228.906 102.848L230.308 95.0162Z" fill="#6A6966"/>
<path d="M228.855 103.009L310.021 145.396L308.619 153.228L227.345 111.444L228.855 103.009Z" fill="#242321"/>
<path fill-rule="evenodd" clip-rule="evenodd" d="M321.15 130.757L319.51 140.078L336.31 148.782L319.597 243.741L319.106 243.468L318.654 246.028L312.351 242.54L318.297 246.407L237.825 259.428L238.52 259.844L223.69 262.081L95.4237 184.142L96.125 184.082L95.704 183.829L192.223 175.092L208.358 83.4169L222.096 90.921L223.736 81.5999L321.15 130.757ZM119.592 188.592L201.469 181.18L308.925 240.644L227.836 253.443L119.592 188.592ZM304.035 228L312.401 232.55L326.526 152.295L318.074 148.234L304.035 228ZM200.663 171.78L207.235 175.354L220.558 99.6595L213.979 96.1186L200.663 171.78ZM310.853 137.182L298.344 208.255L218.448 163.725L230.342 96.1472L310.853 137.182ZM215.783 178.872L295.781 222.819L296.909 216.411L217.013 171.881L215.783 178.872Z" fill="#242321"/>
<path d="M230.085 95.0162L311.582 136.91L296.168 223.167L214.949 179.714L230.085 95.0162Z" fill="#8F8D89"/>
<path d="M271.004 164.745L257 155.864L258.44 160.267L260.422 167.868L257.734 170.446L253.969 172.816L268.151 180.7L271.004 164.745Z" fill="#FFFBF6"/>
<path d="M268.48 153.945L263.453 150.916L262.74 154.905L267.767 157.934L268.48 153.945Z" fill="#FFFBF6"/>
<path d="M326.478 152.01L302.973 139.816L288.667 219.661L312.074 232.408L326.478 152.01Z" fill="#8F8D89"/>
<path d="M232.019 104.684L214.535 96.1699L200.928 172.038L218.233 181.551L232.019 104.684Z" fill="#8F8D89"/>
</svg>
